<svg width="187" height="40" viewBox="0 0 187 40" fill="none" xmlns="http://www.w3.org/2000/svg">
<path d="M43.82 29V15.112H46.984L47.264 17.464C47.6933 16.6427 48.3093 15.9893 49.112 15.504C49.9333 15.0187 50.8947 14.776 51.996 14.776C53.7133 14.776 55.048 15.3173 56 16.4C56.952 17.4827 57.428 19.0693 57.428 21.16V29H53.844V21.496C53.844 20.3013 53.6013 19.3867 53.116 18.752C52.6307 18.1173 51.8747 17.8 50.848 17.8C49.84 17.8 49.0093 18.1547 48.356 18.864C47.7213 19.5733 47.404 20.5627 47.404 21.832V29H43.82ZM66.0632 29.336C64.3272 29.336 62.9832 28.7947 62.0312 27.712C61.0978 26.6293 60.6312 25.0427 60.6312 22.952V15.112H64.1872V22.616C64.1872 23.8107 64.4298 24.7253 64.9152 25.36C65.4005 25.9947 66.1658 26.312 67.2112 26.312C68.2005 26.312 69.0125 25.9573 69.6472 25.248C70.3005 24.5387 70.6272 23.5493 70.6272 22.28V15.112H74.2112V29H71.0472L70.7672 26.648C70.3378 27.4693 69.7125 28.1227 68.8912 28.608C68.0885 29.0933 67.1458 29.336 66.0632 29.336ZM76.5743 29L81.6143 22.056L76.5743 15.112H80.4103L83.9383 20.04L87.4383 15.112H91.3023L86.2343 22.056L91.3023 29H87.4383L83.9383 24.072L80.4103 29H76.5743ZM99.7736 29C98.3176 29 97.151 28.6453 96.2736 27.936C95.3963 27.2267 94.9576 25.9667 94.9576 24.156V18.108H92.5776V15.112H94.9576L95.3776 11.388H98.5416V15.112H102.294V18.108H98.5416V24.184C98.5416 24.856 98.6816 25.3227 98.9616 25.584C99.2603 25.8267 99.7643 25.948 100.474 25.948H102.21V29H99.7736ZM104.195 32.108L111.195 7.244H114.695L107.667 32.108H104.195Z" fill="#003C3C"/>
<path d="M121.944 29.336C120.749 29.336 119.769 29.1493 119.004 28.776C118.239 28.384 117.669 27.8707 117.296 27.236C116.923 26.6013 116.736 25.9013 116.736 25.136C116.736 23.848 117.24 22.8027 118.248 22C119.256 21.1973 120.768 20.796 122.784 20.796H126.312V20.46C126.312 19.508 126.041 18.808 125.5 18.36C124.959 17.912 124.287 17.688 123.484 17.688C122.756 17.688 122.121 17.8653 121.58 18.22C121.039 18.556 120.703 19.06 120.572 19.732H117.072C117.165 18.724 117.501 17.8467 118.08 17.1C118.677 16.3533 119.443 15.784 120.376 15.392C121.309 14.9813 122.355 14.776 123.512 14.776C125.491 14.776 127.049 15.2707 128.188 16.26C129.327 17.2493 129.896 18.6493 129.896 20.46V29H126.844L126.508 26.76C126.097 27.5067 125.519 28.1227 124.772 28.608C124.044 29.0933 123.101 29.336 121.944 29.336ZM122.756 26.536C123.783 26.536 124.576 26.2 125.136 25.528C125.715 24.856 126.079 24.0253 126.228 23.036H123.176C122.224 23.036 121.543 23.2133 121.132 23.568C120.721 23.904 120.516 24.324 120.516 24.828C120.516 25.3693 120.721 25.7893 121.132 26.088C121.543 26.3867 122.084 26.536 122.756 26.536ZM132 29L137.04 22.056L132 15.112H135.836L139.364 20.04L142.864 15.112H146.728L141.66 22.056L146.728 29H142.864L139.364 24.072L135.836 29H132ZM150.943 12.956C150.29 12.956 149.749 12.76 149.319 12.368C148.909 11.976 148.703 11.4813 148.703 10.884C148.703 10.2867 148.909 9.80133 149.319 9.428C149.749 9.036 150.29 8.84 150.943 8.84C151.597 8.84 152.129 9.036 152.539 9.428C152.969 9.80133 153.183 10.2867 153.183 10.884C153.183 11.4813 152.969 11.976 152.539 12.368C152.129 12.76 151.597 12.956 150.943 12.956ZM149.151 29V15.112H152.735V29H149.151ZM163.14 29.336C161.796 29.336 160.583 29.028 159.5 28.412C158.436 27.796 157.587 26.9467 156.952 25.864C156.336 24.7627 156.028 23.4933 156.028 22.056C156.028 20.6187 156.346 19.3587 156.98 18.276C157.615 17.1747 158.464 16.316 159.528 15.7C160.611 15.084 161.824 14.776 163.168 14.776C164.494 14.776 165.688 15.084 166.752 15.7C167.835 16.316 168.684 17.1747 169.3 18.276C169.935 19.3587 170.252 20.6187 170.252 22.056C170.252 23.4933 169.935 24.7627 169.3 25.864C168.684 26.9467 167.835 27.796 166.752 28.412C165.67 29.028 164.466 29.336 163.14 29.336ZM163.14 26.228C164.074 26.228 164.886 25.8827 165.576 25.192C166.267 24.4827 166.612 23.4373 166.612 22.056C166.612 20.6747 166.267 19.6387 165.576 18.948C164.886 18.2387 164.083 17.884 163.168 17.884C162.216 17.884 161.395 18.2387 160.704 18.948C160.032 19.6387 159.696 20.6747 159.696 22.056C159.696 23.4373 160.032 24.4827 160.704 25.192C161.395 25.8827 162.207 26.228 163.14 26.228ZM179.197 29.336C177.965 29.336 176.882 29.14 175.949 28.748C175.015 28.3373 174.269 27.7773 173.709 27.068C173.149 26.3587 172.813 25.5373 172.701 24.604H176.313C176.425 25.1453 176.723 25.612 177.209 26.004C177.713 26.3773 178.357 26.564 179.141 26.564C179.925 26.564 180.494 26.4053 180.849 26.088C181.222 25.7707 181.409 25.4067 181.409 24.996C181.409 24.3987 181.147 23.9973 180.625 23.792C180.102 23.568 179.374 23.3533 178.441 23.148C177.843 23.0173 177.237 22.8587 176.621 22.672C176.005 22.4853 175.435 22.252 174.913 21.972C174.409 21.6733 173.998 21.3 173.681 20.852C173.363 20.3853 173.205 19.816 173.205 19.144C173.205 17.912 173.69 16.876 174.661 16.036C175.65 15.196 177.031 14.776 178.805 14.776C180.447 14.776 181.754 15.1587 182.725 15.924C183.714 16.6893 184.302 17.744 184.489 19.088H181.101C180.895 18.0613 180.121 17.548 178.777 17.548C178.105 17.548 177.582 17.6787 177.209 17.94C176.854 18.2013 176.677 18.528 176.677 18.92C176.677 19.3307 176.947 19.6573 177.489 19.9C178.03 20.1427 178.749 20.3667 179.645 20.572C180.615 20.796 181.502 21.048 182.305 21.328C183.126 21.5893 183.779 21.9907 184.265 22.532C184.75 23.0547 184.993 23.8107 184.993 24.8C185.011 25.6587 184.787 26.4333 184.321 27.124C183.854 27.8147 183.182 28.356 182.305 28.748C181.427 29.14 180.391 29.336 179.197 29.336Z" fill="#854195"/>
<g clip-path="url(#clip0)">
<path d="M7.35999 16.0457H7.00073L7.24106 16.3128L9.2982 18.5985L9.34587 18.6514H9.41713H31.36H31.7463L31.4731 18.3783L26.9017 13.8069L26.6286 13.5337V13.92V16.0457H7.35999Z" fill="#854195" stroke="#854195" stroke-width="0.32"/>
<path d="M24.64 23.8629H24.9993L24.7589 23.5958L22.7018 21.3101L22.6541 21.2572H22.5829L0.640015 21.2572H0.25374L0.526878 21.5303L5.09831 26.1017L5.37144 26.3749V25.9886V23.8629L24.64 23.8629Z" fill="#854195" stroke="#854195" stroke-width="0.32"/>
</g>
<defs>
<clipPath id="clip0">
<path d="M0 10.4C0 7.38301 0 5.87452 0.937258 4.93726C1.87452 4 3.38301 4 6.4 4H25.6C28.617 4 30.1255 4 31.0627 4.93726C32 5.87452 32 7.38301 32 10.4V29.6C32 32.617 32 34.1255 31.0627 35.0627C30.1255 36 28.617 36 25.6 36H6.4C3.38301 36 1.87452 36 0.937258 35.0627C0 34.1255 0 32.617 0 29.6V10.4Z" fill="white"/>
</clipPath>
</defs>
</svg>
